<svg xmlns="http://www.w3.org/2000/svg" xmlns:xlink="http://www.w3.org/1999/xlink" width="0" height="0" style="position:absolute">
	
		<symbol id="icon-arrow-down" viewBox="0 0 14 15">
			<path d="M1.43 5.57l1.14-1.14L7 8.87l4.43-4.44 1.14 1.14L7 11.13 1.43 5.57z"></path>
		</symbol>
	
		<symbol id="icon-arrow-first-page" viewBox="0 0 12 10">
			<path fill-rule="evenodd" clip-rule="evenodd" d="M5.293.293l1.414 1.414L3.414 5l3.293 3.293-1.414 1.414L.586 5 5.293.293z"></path><path fill-rule="evenodd" clip-rule="evenodd" d="M10.293.293l1.414 1.414L8.414 5l3.293 3.293-1.414 1.414L5.586 5 10.293.293z"></path>
		</symbol>
	
		<symbol id="icon-arrow-last-page" viewBox="0 0 12 10">
			<path fill-rule="evenodd" clip-rule="evenodd" d="M6.828.293L5.414 1.707 8.707 5 5.414 8.293l1.414 1.414L11.535 5 6.828.293z"></path><path fill-rule="evenodd" clip-rule="evenodd" d="M1.828.293L.414 1.707 3.707 5 .414 8.293l1.414 1.414L6.535 5 1.828.293z"></path>
		</symbol>
	
		<symbol id="icon-arrow-left" viewBox="0 0 39 22">
			<path d="M.74 10.5h38v1h-38v-1z"></path><path d="M11.4.63l.68.74L1.48 11l10.6 9.63-.67.74L0 11 11.4.63z"></path>
		</symbol>
	
		<symbol id="icon-arrow-next-page" viewBox="0 0 7 10">
			<path fill-rule="evenodd" clip-rule="evenodd" d="M1.414.293L0 1.707 3.293 5 0 8.293l1.414 1.414L6.121 5 1.414.293z"></path>
		</symbol>
	
		<symbol id="icon-arrow-prev-page" viewBox="0 0 7 10">
			<path fill-rule="evenodd" clip-rule="evenodd" d="M5.414.293l1.414 1.414L3.535 5l3.293 3.293-1.414 1.414L.707 5 5.414.293z"></path>
		</symbol>
	
		<symbol id="icon-arrow-right" viewBox="0 0 39 22">
			<g clip-path="url(#a)"><path d="M38.26 11.5h-38v-1h38v1z"></path><path d="M27.6 21.37l-.68-.74L37.52 11l-10.6-9.63.67-.74L39 11 27.6 21.37z"></path></g><defs><clipPath id="a"><path transform="rotate(-180 19.5 11)" d="M0 0h39v22H0z"></path></clipPath></defs>
		</symbol>
	
		<symbol id="icon-arrow-up" viewBox="0 0 14 15">
			<path d="M12.57 9.43l-1.14 1.14L7 6.13l-4.43 4.44-1.14-1.14L7 3.87l5.57 5.56z"></path>
		</symbol>
	
		<symbol id="icon-circle-checked" viewBox="0 0 25 24">
			<path d="M12.5 23a11 11 0 1 1 0-22 11 11 0 0 1 0 22zm0-2a9 9 0 1 0 0-18 9 9 0 0 0 0 18zm3.3-12.7l-5.3 5.3-2.3-2.3-1.4 1.4 3.7 3.7 6.7-6.7-1.4-1.4z"></path>
		</symbol>
	
		<symbol id="icon-close" viewBox="0 0 16 16">
			<path fill-rule="evenodd" clip-rule="evenodd" d="M8 9.414l-4.293 4.293-1.414-1.414L6.586 8 2.293 3.707l1.414-1.414L8 6.586l4.293-4.293 1.414 1.414L9.414 8l4.293 4.293-1.414 1.414L8 9.414z"></path>
		</symbol>
	
		<symbol id="icon-facebook" viewBox="0 0 24 24">
			<path d="M24 12.07C24 5.4 18.63 0 12 0S0 5.4 0 12.07C0 18.1 4.39 23.1 10.13 24v-8.44H7.08v-3.49h3.04V9.41c0-3.02 1.8-4.7 4.54-4.7 1.31 0 2.68.24 2.68.24v2.97h-1.51c-1.5 0-1.96.93-1.96 1.89v2.26h3.33l-.53 3.5h-2.8V24C19.62 23.1 24 18.1 24 12.07z"></path>
		</symbol>
	
		<symbol id="icon-instagram" viewBox="0 0 24 24">
			<path d="M17.3 0H6.7C3 0 0 3 0 6.8v10.5C0 21 3 24 6.8 24h10.4c3.8 0 6.8-3 6.8-6.8V6.8C24 3 21 0 17.2 0zM12 7.5c2.5 0 4.5 2 4.5 4.5s-2 4.5-4.5 4.5-4.5-2-4.5-4.5 2-4.5 4.5-4.5zm4.5-2.3c0-.8.7-1.5 1.5-1.5s1.5.7 1.5 1.5c0 .9-.7 1.5-1.5 1.5s-1.5-.6-1.5-1.5z"></path>
		</symbol>
	
		<symbol id="icon-load" viewBox="0 0 20 17">
			<path d="M19.427 8.288c-.318 0-.573.233-.573.525v4.78c0 1.301-1.154 2.356-2.568 2.356H3.714c-1.418 0-2.568-1.059-2.568-2.355V8.736c0-.292-.255-.526-.573-.526-.318 0-.573.234-.573.526v4.858C0 15.474 1.668 17 3.714 17h12.572C18.336 17 20 15.47 20 13.594v-4.78c0-.289-.255-.526-.573-.526z"></path><path d="M9.597 12.827a.604.604 0 0 0 .806 0l3.642-3.34a.494.494 0 0 0 0-.744.608.608 0 0 0-.81 0l-2.662 2.445V.526C10.573.234 10.318 0 10 0c-.318 0-.573.234-.573.526v10.662L6.761 8.743a.608.608 0 0 0-.81 0 .494.494 0 0 0 0 .744l3.646 3.34z"></path>
		</symbol>
	
		<symbol id="icon-marker" viewBox="0 0 14 14">
			<path fill-rule="evenodd" d="M7 13.5c3-2 5-5.2 5-8a5 5 0 0 0-10 0c0 2.8 2 6 5 8zm0-6a2 2 0 1 0 0-4 2 2 0 0 0 0 4z"></path>
		</symbol>
	
		<symbol id="icon-phone" viewBox="0 0 14 14">
			<path d="M6.4 3.65c.35.38.24.81-.06 1.22a3.18 3.18 0 0 1-.42.46l-.45.45c-.06.05.34.85 1.12 1.63.77.77 1.57 1.17 1.63 1.12l.45-.45c.24-.25.37-.37.55-.48.37-.25.78-.31 1.12 0 1.12.8 1.75 1.28 2.06 1.6.6.63.53 1.6 0 2.15-.18.19-.4.42-.68.68-1.63 1.64-5.1.64-7.74-2.01C1.33 7.37.33 3.9 1.97 2.27l.67-.67c.54-.53 1.55-.6 2.16 0 .32.32.84.98 1.6 2.05z"></path>
		</symbol>
	
		<symbol id="icon-play" viewBox="0 0 21 24">
			<path d="M19.09 10.28L3.02.78A2 2 0 0 0 0 2.5v19a2 2 0 0 0 3.02 1.72l16.07-9.5a2 2 0 0 0 0-3.44z"></path>
		</symbol>
	
		<symbol id="icon-sep" viewBox="0 0 6 10">
			<path d="M5.9.7l-5.2 9-.7-.4 5.2-9 .7.4z"></path>
		</symbol>
	
		<symbol id="icon-sticker" viewBox="0 0 42 42">
			<path d="M6.8 14.2a14.2 14.2 0 1 1 24.8 9.4L36 38.9l-6.5-2.6-4.2 5.7-4-13.7a14.1 14.1 0 0 1-.7 0L16.7 42l-4.2-5.7L6 38.9l4.4-15.3a14.1 14.1 0 0 1-3.6-9.4zm5.3 11L9 35.5l4.1-1.7 2.7 3.7 2.7-9.4c-2.5-.4-4.7-1.4-6.5-3zm11.3 3l2.7 9.3 2.6-3.7 4.2 1.7-3-10.3c-1.8 1.5-4 2.5-6.5 3zM21 2a12.1 12.1 0 1 0 0 24.3A12.1 12.1 0 0 0 21 2zm7.3 7.7l-9 11.3-5-5 1.3-1.4 3.6 3.4 7.5-9.5 1.6 1.2z"></path>
		</symbol>
	
		<symbol id="icon-telegram" viewBox="0 0 24 24">
			<path d="M24 12a12 12 0 1 1-24 0 12 12 0 0 1 24 0zM12.43 8.86c-1.17.48-3.5 1.49-7 3.01-.57.23-.86.45-.9.67-.04.36.42.5 1.04.7l.27.08c.6.2 1.43.44 1.86.45.39 0 .82-.16 1.3-.48 3.27-2.21 4.96-3.33 5.06-3.35.08-.02.18-.04.25.02.07.07.07.18.06.22-.05.19-1.84 1.86-2.77 2.72l-.54.5-.28.28c-.57.55-1 .96.02 1.64.5.32.89.59 1.28.85.42.3.85.58 1.4.95.14.09.28.18.4.28.5.35.95.67 1.5.62.32-.03.65-.33.82-1.23.4-2.13 1.18-6.73 1.36-8.63.02-.17 0-.38-.02-.47a.5.5 0 0 0-.17-.33.79.79 0 0 0-.46-.14c-.46.01-1.15.25-4.48 1.64z"></path>
		</symbol>
	
		<symbol id="icon-viber" viewBox="0 0 24 24">
			<path d="M21.22 2.34c-.6-.55-3-2.3-8.37-2.32 0 0-6.34-.39-9.45 2.45C1.68 4.19 1.08 6.7 1.01 9.82.95 12.93.87 18.77 6.5 20.36v2.42s0 .98.6 1.17c.79.25 1.24-.5 2-1.3l1.39-1.58c2.4.22 4.8.05 7.14-.52.78-.26 5.18-.82 5.9-6.67.77-6.02-.33-9.82-2.3-11.54zm.66 11.12c-.61 4.87-4.18 5.17-4.83 5.39-2.01.5-4.1.67-6.16.53 0 0-2.44 2.9-3.2 3.7a.41.41 0 0 1-.35.15c-.13-.04-.17-.2-.17-.42V18.8c-4.76-1.32-4.48-6.3-4.43-8.9.06-2.6.55-4.73 2-6.17 2.6-2.36 8-2.01 8-2.01 4.53 0 6.71 1.39 7.21 1.85 1.7 1.43 2.54 4.86 1.93 9.9z"></path><path d="M14.06 9.98a.3.3 0 0 1-.31-.29 1.45 1.45 0 0 0-1.53-1.58.3.3 0 1 1 .04-.61 2.04 2.04 0 0 1 2.08 2.3.3.3 0 0 1-.27.2l-.01-.02z"></path><path d="M15.62 10.5a.3.3 0 0 1-.3-.3 3.5 3.5 0 0 0-.9-2.57 3.78 3.78 0 0 0-2.78-1.17.3.3 0 0 1 .17-.59 4.4 4.4 0 0 1 3.05 1.35 4.12 4.12 0 0 1 1.04 3.08.3.3 0 0 1-.28.2z"></path><path d="M17.2 11.13a.3.3 0 0 1-.3-.3 5.81 5.81 0 0 0-1.63-4.36 5.6 5.6 0 0 0-4.03-1.6.3.3 0 0 1 0-.6 6.22 6.22 0 0 1 4.45 1.76 6.45 6.45 0 0 1 1.82 4.77.3.3 0 0 1-.3.3v.03zm-4.9 2.62a.83.83 0 0 0 .66-.25l.45-.57a.97.97 0 0 1 1.24-.16 12.68 12.68 0 0 1 2.15 1.56.85.85 0 0 1 .18 1.12c-.24.43-.56.81-.93 1.14-.26.25-.6.4-.95.46h-.14c-.13 0-.27-.02-.4-.06-.9-.31-1.77-.71-2.6-1.2a15.2 15.2 0 0 1-3.16-2.33h-.03a15.84 15.84 0 0 1-2.32-3.17c-.5-.82-.9-1.69-1.2-2.6a1.32 1.32 0 0 1-.07-.4v-.14c.05-.35.21-.68.46-.94.28-.43.62-.8 1.02-1.11a.86.86 0 0 1 1.13.18L8.6 6.3c.25.3.56.83.73 1.12a1 1 0 0 1-.17 1.25l-.57.44a.84.84 0 0 0-.25.66 5.88 5.88 0 0 0 3.95 3.97z"></path>
		</symbol>
	
</svg>
